<?xml version="1.0" standalone="no"?>
<!DOCTYPE svg PUBLIC "-//W3C//DTD SVG 20010904//EN"
 "http://www.w3.org/TR/2001/REC-SVG-20010904/DTD/svg10.dtd">
<svg version="1.0" xmlns="http://www.w3.org/2000/svg"
 width="1280.000000pt" height="1232.000000pt" viewBox="0 0 1280.000000 1232.000000"
 preserveAspectRatio="xMidYMid meet">
<g transform="translate(0.000000,1232.000000) scale(0.100000,-0.100000)"
fill="#000000" stroke="none">
<path d="M6195 12309 c-33 -5 -139 -15 -235 -24 -673 -61 -1309 -239 -1925
-539 -815 -397 -1512 -972 -2059 -1700 -592 -787 -969 -1689 -1116 -2672 -23
-149 -23 -151 -4 -189 10 -21 32 -48 47 -59 28 -21 31 -21 1500 -24 810 -2
1500 0 1535 3 98 10 113 29 173 210 89 270 252 567 436 795 98 122 283 303
416 406 490 379 1063 562 1647 525 383 -25 706 -108 1015 -262 130 -65 352
-209 400 -259 l29 -30 -34 -34 c-19 -19 -271 -251 -560 -516 -508 -467 -570
-530 -570 -582 0 -37 29 -88 62 -108 33 -20 44 -20 2322 -20 l2288 0 39 39 39
39 0 2258 c-1 1818 -3 2264 -14 2282 -30 56 -115 79 -174 48 -15 -8 -270 -258
-567 -555 -297 -298 -546 -541 -553 -541 -7 0 -81 60 -165 133 -379 332 -681
544 -1089 763 -625 337 -1371 545 -2128 594 -96 6 -227 15 -292 20 -135 12
-377 11 -463 -1z"/>
<path d="M8470 6453 c-40 -27 -46 -40 -94 -184 -177 -538 -532 -998 -1016
-1321 -145 -97 -374 -214 -533 -272 -434 -161 -914 -184 -1425 -70 -312 70
-641 221 -885 406 -51 39 -77 65 -75 76 2 9 251 245 553 523 303 279 560 521
573 539 41 60 25 135 -37 177 l-34 23 -2281 0 c-2270 0 -2281 0 -2314 -20 -67
-41 -62 135 -62 -2320 0 -2425 -4 -2272 55 -2318 33 -26 102 -30 143 -8 15 8
270 258 567 555 297 298 544 541 550 541 5 -1 26 -15 46 -33 20 -18 88 -77
150 -133 690 -610 1502 -1027 2364 -1213 468 -100 871 -137 1413 -128 336 6
482 18 757 61 1233 197 2354 795 3225 1721 801 853 1329 1944 1511 3124 28
185 27 205 -20 252 l-39 39 -1534 0 c-1428 0 -1535 -1 -1558 -17z"/>
</g>
</svg>
